<?xml version="1.0" encoding="UTF-8"?>
<svg width="1440px" height="1204px" viewBox="0 0 1440 1204" version="1.1" xmlns="http://www.w3.org/2000/svg" xmlns:xlink="http://www.w3.org/1999/xlink">
    <!-- Generator: Sketch 53.2 (72643) - https://sketchapp.com -->
    <title>006.Home_register@3x</title>
    <desc>Created with Sketch.</desc>
    <g id="006.Home_register" stroke="none" stroke-width="1" fill="none" fill-rule="evenodd">
        <rect fill="#1152CC" x="0" y="0" width="1440" height="1204"></rect>
        <g id="Section_1" transform="translate(163.000000, -797.000000)">
            <g id="Background" transform="translate(81.000000, 0.000000)" stroke="#0C3B94" stroke-linecap="round" stroke-linejoin="round">
                <g id="Group-4" transform="translate(891.000000, 1286.000000)" stroke-width="5">
                    <path d="M13,11 C6.82017061,11 7.88531921,0 0,0" id="Stroke-9"></path>
                    <path d="M40,11 C33.8197454,11 34.8849673,0 27,0" id="Stroke-10"></path>
                    <path d="M14,11 C20.1794043,11 19.1152232,0 27,0" id="Stroke-11"></path>
                    <path d="M40,11 C46.1789351,10.9991023 45.1146808,-0.000897666068 53,0" id="Stroke-12"></path>
                </g>
                <g id="Group-4" transform="translate(148.000000, 1209.000000)" stroke-width="5">
                    <path d="M13,11 C6.82017061,11 7.88531921,0 0,0" id="Stroke-9"></path>
                    <path d="M40,11 C33.8197454,11 34.8849673,0 27,0" id="Stroke-10"></path>
                    <path d="M14,11 C20.1794043,11 19.1152232,0 27,0" id="Stroke-11"></path>
                    <path d="M40,11 C46.1789351,10.9991023 45.1146808,-0.000897666068 53,0" id="Stroke-12"></path>
                </g>
                <polygon id="Path-2" stroke-width="6" points="0 1069.27639 33.280717 1036 40.85868 1091.40231"></polygon>
            </g>
            <g id="Logo" transform="translate(0.000000, 856.000000)">
                <g id="Group-3">
                    <g id="Group-7" transform="translate(0.170499, 0.460843)">
                        <g id="Group-5" transform="translate(0.299446, 0.057605)">
                            <g id="Main" transform="translate(0.250355, 0.088973)"></g>
                        </g>
                    </g>
                </g>
            </g>
        </g>
        <polygon id="Path-2" stroke="#0C3B94" stroke-width="6" stroke-linecap="round" stroke-linejoin="round" points="1218 357.034748 1251.39583 324 1259 379"></polygon>
    </g>
</svg>